<svg width="33" height="33" viewBox="0 0 33 33" fill="none" xmlns="http://www.w3.org/2000/svg">
<path d="M24.75 11H26.125C27.5837 11 28.9826 11.5795 30.0141 12.6109C31.0455 13.6424 31.625 15.0413 31.625 16.5C31.625 17.9587 31.0455 19.3576 30.0141 20.3891C28.9826 21.4205 27.5837 22 26.125 22H24.75" stroke="black" stroke-width="2" stroke-linecap="round" stroke-linejoin="round"/>
<path d="M2.75 11H24.75V23.375C24.75 24.8337 24.1705 26.2326 23.1391 27.2641C22.1076 28.2955 20.7087 28.875 19.25 28.875H8.25C6.79131 28.875 5.39236 28.2955 4.36091 27.2641C3.32946 26.2326 2.75 24.8337 2.75 23.375V11Z" stroke="black" stroke-width="2" stroke-linecap="round" stroke-linejoin="round"/>
<path d="M8.25 1.375V5.5" stroke="black" stroke-width="2" stroke-linecap="round" stroke-linejoin="round"/>
<path d="M13.75 1.375V5.5" stroke="black" stroke-width="2" stroke-linecap="round" stroke-linejoin="round"/>
<path d="M19.25 1.375V5.5" stroke="black" stroke-width="2" stroke-linecap="round" stroke-linejoin="round"/>
</svg>
