<svg width="30" height="65" viewBox="0 0 30 65" fill="none" xmlns="http://www.w3.org/2000/svg">
<path d="M22.166 0.328C24.302 0.328 26.0523 1.129 27.417 2.731C28.841 4.333 29.553 6.736 29.553 9.94C29.553 13.144 28.2773 17.8907 25.726 24.18H29.108L28.93 25.782H25.014C22.9967 30.8253 21.988 34.6523 21.988 37.263H20.386C20.386 34.1777 21.365 30.3507 23.323 25.782H18.161C16.381 35.0973 14.0967 47.9133 11.308 64.23H0.539L7.392 25.782H1.963L2.141 24.18H7.659L9.083 16.526C10.0323 10.652 11.486 6.49867 13.444 4.066C15.4613 1.574 18.3687 0.328 22.166 0.328ZM27.862 9.762C27.862 7.626 27.3577 5.78667 26.349 4.244C25.3997 2.70133 24.213 1.93 22.789 1.93C22.1957 4.244 20.742 11.6607 18.428 24.18H23.946C26.5567 18.2467 27.862 13.4407 27.862 9.762Z" fill="black"/>
</svg>
